<?xml version="1.0" encoding="UTF-8" standalone="no"?>
<!DOCTYPE svg PUBLIC "-//W3C//DTD SVG 1.1//EN"
 "http://www.w3.org/Graphics/SVG/1.1/DTD/svg11.dtd">
<!-- Generated by graphviz version 2.43.0 (0)
 -->
<!-- Title: %3 Pages: 1 -->
<svg width="1120pt" height="281pt"
 viewBox="0.00 0.00 1119.84 280.91" xmlns="http://www.w3.org/2000/svg" xmlns:xlink="http://www.w3.org/1999/xlink">
<g id="graph0" class="graph" transform="scale(1 1) rotate(0) translate(4 276.91)">
<title>%3</title>
<polygon fill="white" stroke="transparent" points="-4,4 -4,-276.91 1115.84,-276.91 1115.84,4 -4,4"/>
<!-- leaf0 -->
<g id="node1" class="node">
<title>leaf0</title>
<ellipse fill="none" stroke="black" cx="1040.42" cy="-247.46" rx="71.34" ry="25.41"/>
<text text-anchor="start" x="1005.42" y="-251.26" font-family="Times,serif" font-size="14.00">leaf 0: </text>
<text text-anchor="start" x="1044.42" y="-251.26" font-family="Times,serif" font-weight="bold" font-size="14.00">0.687</text>
<text text-anchor="start" x="997.92" y="-237.26" font-family="Times,serif" font-size="14.00">39.67% of data</text>
</g>
<!-- split6 -->
<g id="node2" class="node">
<title>split6</title>
<polygon fill="none" stroke="black" points="928,-238.46 786,-238.46 786,-202.46 928,-202.46 928,-238.46"/>
<text text-anchor="start" x="794" y="-224.26" font-family="Times,serif" font-weight="bold" font-size="14.00">mean_radius</text>
<text text-anchor="start" x="870" y="-224.26" font-family="Times,serif" font-size="14.00"> ≤</text>
<text text-anchor="start" x="882" y="-224.26" font-family="Times,serif" font-weight="bold" font-size="14.00">13.720</text>
<text text-anchor="start" x="814.5" y="-210.26" font-family="Times,serif" font-size="14.00">45.07% of data</text>
</g>
<!-- split6&#45;&gt;leaf0 -->
<g id="edge1" class="edge">
<title>split6&#45;&gt;leaf0</title>
<path fill="none" stroke="black" d="M928.14,-230.89C939.98,-232.66 952.32,-234.49 964.28,-236.27"/>
<polygon fill="black" stroke="black" points="963.81,-239.74 974.22,-237.75 964.84,-232.82 963.81,-239.74"/>
<text text-anchor="middle" x="948.5" y="-238.26" font-family="Times,serif" font-size="14.00">yes</text>
</g>
<!-- leaf7 -->
<g id="node3" class="node">
<title>leaf7</title>
<ellipse fill="none" stroke="black" cx="1040.42" cy="-192.46" rx="66.44" ry="25.41"/>
<text text-anchor="start" x="1005.42" y="-196.26" font-family="Times,serif" font-size="14.00">leaf 7: </text>
<text text-anchor="start" x="1044.42" y="-196.26" font-family="Times,serif" font-weight="bold" font-size="14.00">0.687</text>
<text text-anchor="start" x="1001.42" y="-182.26" font-family="Times,serif" font-size="14.00">5.40% of data</text>
</g>
<!-- split6&#45;&gt;leaf7 -->
<g id="edge2" class="edge">
<title>split6&#45;&gt;leaf7</title>
<path fill="none" stroke="black" d="M928.14,-209.63C941.41,-207.58 955.3,-205.44 968.59,-203.39"/>
<polygon fill="black" stroke="black" points="969.27,-206.82 978.62,-201.84 968.2,-199.91 969.27,-206.82"/>
<text text-anchor="middle" x="948.5" y="-210.26" font-family="Times,serif" font-size="14.00">no</text>
</g>
<!-- split5 -->
<g id="node4" class="node">
<title>split5</title>
<polygon fill="none" stroke="black" points="745,-209.46 598,-209.46 598,-173.46 745,-173.46 745,-209.46"/>
<text text-anchor="start" x="606" y="-195.26" font-family="Times,serif" font-weight="bold" font-size="14.00">worst_texture</text>
<text text-anchor="start" x="687" y="-195.26" font-family="Times,serif" font-size="14.00"> ≤</text>
<text text-anchor="start" x="699" y="-195.26" font-family="Times,serif" font-weight="bold" font-size="14.00">29.990</text>
<text text-anchor="start" x="629" y="-181.26" font-family="Times,serif" font-size="14.00">52.11% of data</text>
</g>
<!-- split5&#45;&gt;split6 -->
<g id="edge3" class="edge">
<title>split5&#45;&gt;split6</title>
<path fill="none" stroke="black" d="M745.02,-202.92C755.09,-204.51 765.48,-206.15 775.68,-207.76"/>
<polygon fill="black" stroke="black" points="775.38,-211.26 785.8,-209.36 776.47,-204.34 775.38,-211.26"/>
<text text-anchor="middle" x="765.5" y="-210.26" font-family="Times,serif" font-size="14.00">yes</text>
</g>
<!-- leaf6 -->
<g id="node5" class="node">
<title>leaf6</title>
<ellipse fill="none" stroke="black" cx="857" cy="-173.46" rx="66.44" ry="25.41"/>
<text text-anchor="start" x="822" y="-177.26" font-family="Times,serif" font-size="14.00">leaf 6: </text>
<text text-anchor="start" x="861" y="-177.26" font-family="Times,serif" font-weight="bold" font-size="14.00">0.659</text>
<text text-anchor="start" x="818" y="-163.26" font-family="Times,serif" font-size="14.00">7.04% of data</text>
</g>
<!-- split5&#45;&gt;leaf6 -->
<g id="edge4" class="edge">
<title>split5&#45;&gt;leaf6</title>
<path fill="none" stroke="black" d="M745.02,-184.34C757.23,-183.14 769.92,-181.9 782.16,-180.7"/>
<polygon fill="black" stroke="black" points="782.71,-184.16 792.32,-179.7 782.03,-177.2 782.71,-184.16"/>
<text text-anchor="middle" x="765.5" y="-186.26" font-family="Times,serif" font-size="14.00">no</text>
</g>
<!-- split4 -->
<g id="node6" class="node">
<title>split4</title>
<polygon fill="none" stroke="black" points="548.5,-196.46 418.5,-196.46 418.5,-160.46 548.5,-160.46 548.5,-196.46"/>
<text text-anchor="start" x="426.5" y="-182.26" font-family="Times,serif" font-weight="bold" font-size="14.00">area_error</text>
<text text-anchor="start" x="490.5" y="-182.26" font-family="Times,serif" font-size="14.00"> ≤</text>
<text text-anchor="start" x="502.5" y="-182.26" font-family="Times,serif" font-weight="bold" font-size="14.00">30.185</text>
<text text-anchor="start" x="441" y="-168.26" font-family="Times,serif" font-size="14.00">57.28% of data</text>
</g>
<!-- split4&#45;&gt;split5 -->
<g id="edge5" class="edge">
<title>split4&#45;&gt;split5</title>
<path fill="none" stroke="black" d="M548.51,-182.93C561.16,-183.81 574.59,-184.75 587.76,-185.67"/>
<polygon fill="black" stroke="black" points="587.53,-189.17 597.75,-186.37 588.02,-182.18 587.53,-189.17"/>
<text text-anchor="middle" x="577.5" y="-188.26" font-family="Times,serif" font-size="14.00">yes</text>
</g>
<!-- leaf5 -->
<g id="node7" class="node">
<title>leaf5</title>
<ellipse fill="none" stroke="black" cx="671.5" cy="-144.46" rx="66.44" ry="25.41"/>
<text text-anchor="start" x="636.5" y="-148.26" font-family="Times,serif" font-size="14.00">leaf 5: </text>
<text text-anchor="start" x="675.5" y="-148.26" font-family="Times,serif" font-weight="bold" font-size="14.00">0.629</text>
<text text-anchor="start" x="632.5" y="-134.26" font-family="Times,serif" font-size="14.00">5.16% of data</text>
</g>
<!-- split4&#45;&gt;leaf5 -->
<g id="edge6" class="edge">
<title>split4&#45;&gt;leaf5</title>
<path fill="none" stroke="black" d="M548.51,-166.75C565.46,-163.66 583.85,-160.3 601.07,-157.15"/>
<polygon fill="black" stroke="black" points="601.86,-160.56 611.06,-155.32 600.6,-153.68 601.86,-160.56"/>
<text text-anchor="middle" x="577.5" y="-166.26" font-family="Times,serif" font-size="14.00">no</text>
</g>
<!-- split2 -->
<g id="node8" class="node">
<title>split2</title>
<polygon fill="none" stroke="black" points="369,-149.46 227,-149.46 227,-113.46 369,-113.46 369,-149.46"/>
<text text-anchor="start" x="235" y="-135.26" font-family="Times,serif" font-weight="bold" font-size="14.00">worst_radius</text>
<text text-anchor="start" x="311" y="-135.26" font-family="Times,serif" font-size="14.00"> ≤</text>
<text text-anchor="start" x="323" y="-135.26" font-family="Times,serif" font-weight="bold" font-size="14.00">16.590</text>
<text text-anchor="start" x="255.5" y="-121.26" font-family="Times,serif" font-size="14.00">62.44% of data</text>
</g>
<!-- split2&#45;&gt;split4 -->
<g id="edge7" class="edge">
<title>split2&#45;&gt;split4</title>
<path fill="none" stroke="black" d="M369.16,-149.43C382.06,-152.73 395.56,-156.19 408.57,-159.52"/>
<polygon fill="black" stroke="black" points="407.85,-162.95 418.4,-162.04 409.58,-156.17 407.85,-162.95"/>
<text text-anchor="middle" x="389.5" y="-159.26" font-family="Times,serif" font-size="14.00">yes</text>
</g>
<!-- leaf3 -->
<g id="node9" class="node">
<title>leaf3</title>
<ellipse fill="none" stroke="black" cx="483.5" cy="-131.46" rx="66.44" ry="25.41"/>
<text text-anchor="start" x="448.5" y="-135.26" font-family="Times,serif" font-size="14.00">leaf 3: </text>
<text text-anchor="start" x="487.5" y="-135.26" font-family="Times,serif" font-weight="bold" font-size="14.00">0.473</text>
<text text-anchor="start" x="444.5" y="-121.26" font-family="Times,serif" font-size="14.00">5.16% of data</text>
</g>
<!-- split2&#45;&gt;leaf3 -->
<g id="edge8" class="edge">
<title>split2&#45;&gt;leaf3</title>
<path fill="none" stroke="black" d="M369.16,-131.46C381.41,-131.46 394.21,-131.46 406.61,-131.46"/>
<polygon fill="black" stroke="black" points="406.91,-134.96 416.91,-131.46 406.91,-127.96 406.91,-134.96"/>
<text text-anchor="middle" x="389.5" y="-135.26" font-family="Times,serif" font-size="14.00">no</text>
</g>
<!-- split0 -->
<g id="node10" class="node">
<title>split0</title>
<polygon fill="none" stroke="black" points="186,-121.46 0,-121.46 0,-85.46 186,-85.46 186,-121.46"/>
<text text-anchor="start" x="8" y="-107.26" font-family="Times,serif" font-weight="bold" font-size="14.00">mean_concave_points</text>
<text text-anchor="start" x="135" y="-107.26" font-family="Times,serif" font-size="14.00"> ≤</text>
<text text-anchor="start" x="147" y="-107.26" font-family="Times,serif" font-weight="bold" font-size="14.00">0.050</text>
<text text-anchor="start" x="47.5" y="-93.26" font-family="Times,serif" font-size="14.00">100.00% of data</text>
</g>
<!-- split0&#45;&gt;split2 -->
<g id="edge9" class="edge">
<title>split0&#45;&gt;split2</title>
<path fill="none" stroke="black" d="M186.29,-116.19C196.5,-117.59 206.84,-119.02 216.89,-120.41"/>
<polygon fill="black" stroke="black" points="216.43,-123.88 226.82,-121.78 217.39,-116.94 216.43,-123.88"/>
<text text-anchor="middle" x="206.5" y="-123.26" font-family="Times,serif" font-size="14.00">yes</text>
</g>
<!-- split1 -->
<g id="node12" class="node">
<title>split1</title>
<polygon fill="none" stroke="black" points="367,-94.46 229,-94.46 229,-58.46 367,-58.46 367,-94.46"/>
<text text-anchor="start" x="237" y="-80.26" font-family="Times,serif" font-weight="bold" font-size="14.00">worst_area</text>
<text text-anchor="start" x="302" y="-80.26" font-family="Times,serif" font-size="14.00"> ≤</text>
<text text-anchor="start" x="314" y="-80.26" font-family="Times,serif" font-weight="bold" font-size="14.00">749.950</text>
<text text-anchor="start" x="255.5" y="-66.26" font-family="Times,serif" font-size="14.00">37.56% of data</text>
</g>
<!-- split0&#45;&gt;split1 -->
<g id="edge14" class="edge">
<title>split0&#45;&gt;split1</title>
<path fill="none" stroke="black" d="M186.29,-91.18C197.17,-89.73 208.18,-88.27 218.84,-86.85"/>
<polygon fill="black" stroke="black" points="219.47,-90.3 228.92,-85.51 218.55,-83.36 219.47,-90.3"/>
<text text-anchor="middle" x="206.5" y="-92.26" font-family="Times,serif" font-size="14.00">no</text>
</g>
<!-- leaf1 -->
<g id="node11" class="node">
<title>leaf1</title>
<ellipse fill="none" stroke="black" cx="483.5" cy="-76.46" rx="66.44" ry="25.41"/>
<text text-anchor="start" x="448.5" y="-80.26" font-family="Times,serif" font-size="14.00">leaf 1: </text>
<text text-anchor="start" x="487.5" y="-80.26" font-family="Times,serif" font-weight="bold" font-size="14.00">0.501</text>
<text text-anchor="start" x="444.5" y="-66.26" font-family="Times,serif" font-size="14.00">5.40% of data</text>
</g>
<!-- split1&#45;&gt;leaf1 -->
<g id="edge10" class="edge">
<title>split1&#45;&gt;leaf1</title>
<path fill="none" stroke="black" d="M367.07,-76.46C380.07,-76.46 393.76,-76.46 406.98,-76.46"/>
<polygon fill="black" stroke="black" points="406.98,-79.96 416.98,-76.46 406.98,-72.96 406.98,-79.96"/>
<text text-anchor="middle" x="389.5" y="-80.26" font-family="Times,serif" font-size="14.00">yes</text>
</g>
<!-- split3 -->
<g id="node14" class="node">
<title>split3</title>
<polygon fill="none" stroke="black" points="557,-47.46 410,-47.46 410,-11.46 557,-11.46 557,-47.46"/>
<text text-anchor="start" x="418" y="-33.26" font-family="Times,serif" font-weight="bold" font-size="14.00">mean_texture</text>
<text text-anchor="start" x="499" y="-33.26" font-family="Times,serif" font-size="14.00"> ≤</text>
<text text-anchor="start" x="511" y="-33.26" font-family="Times,serif" font-weight="bold" font-size="14.00">17.525</text>
<text text-anchor="start" x="441" y="-19.26" font-family="Times,serif" font-size="14.00">32.16% of data</text>
</g>
<!-- split1&#45;&gt;split3 -->
<g id="edge13" class="edge">
<title>split1&#45;&gt;split3</title>
<path fill="none" stroke="black" d="M367.07,-59.02C378.54,-56.08 390.55,-53.01 402.3,-50"/>
<polygon fill="black" stroke="black" points="403.27,-53.36 412.09,-47.49 401.53,-46.58 403.27,-53.36"/>
<text text-anchor="middle" x="389.5" y="-57.26" font-family="Times,serif" font-size="14.00">no</text>
</g>
<!-- leaf2 -->
<g id="node13" class="node">
<title>leaf2</title>
<ellipse fill="none" stroke="black" cx="671.5" cy="-80.46" rx="66.44" ry="25.41"/>
<text text-anchor="start" x="636.5" y="-84.26" font-family="Times,serif" font-size="14.00">leaf 2: </text>
<text text-anchor="start" x="675.5" y="-84.26" font-family="Times,serif" font-weight="bold" font-size="14.00">0.366</text>
<text text-anchor="start" x="632.5" y="-70.26" font-family="Times,serif" font-size="14.00">4.69% of data</text>
</g>
<!-- split3&#45;&gt;leaf2 -->
<g id="edge11" class="edge">
<title>split3&#45;&gt;leaf2</title>
<path fill="none" stroke="black" d="M550.34,-47.51C568.85,-52.58 588.94,-58.09 607.3,-63.13"/>
<polygon fill="black" stroke="black" points="606.44,-66.52 617.01,-65.79 608.29,-59.77 606.44,-66.52"/>
<text text-anchor="middle" x="577.5" y="-60.26" font-family="Times,serif" font-size="14.00">yes</text>
</g>
<!-- leaf4 -->
<g id="node15" class="node">
<title>leaf4</title>
<ellipse fill="none" stroke="black" cx="671.5" cy="-25.46" rx="71.34" ry="25.41"/>
<text text-anchor="start" x="636.5" y="-29.26" font-family="Times,serif" font-size="14.00">leaf 4: </text>
<text text-anchor="start" x="675.5" y="-29.26" font-family="Times,serif" font-weight="bold" font-size="14.00">0.259</text>
<text text-anchor="start" x="629" y="-15.26" font-family="Times,serif" font-size="14.00">27.46% of data</text>
</g>
<!-- split3&#45;&gt;leaf4 -->
<g id="edge12" class="edge">
<title>split3&#45;&gt;leaf4</title>
<path fill="none" stroke="black" d="M557.21,-27.89C567.87,-27.66 578.9,-27.43 589.7,-27.19"/>
<polygon fill="black" stroke="black" points="590.05,-30.69 599.97,-26.97 589.9,-23.69 590.05,-30.69"/>
<text text-anchor="middle" x="577.5" y="-32.26" font-family="Times,serif" font-size="14.00">no</text>
</g>
</g>
</svg>